<svg viewBox="0 0 680 210" xmlns="http://www.w3.org/2000/svg" role="img" width="680" height="210">
<title>What Vela does: a scientific result becomes verified, content-addressed state, then a fixed point of light others build on.</title>
<defs>
  <radialGradient id="wash" cx="50%" cy="50%" r="50%">
    <stop offset="0%" stop-color="#D0A840" stop-opacity="0.11"/>
    <stop offset="100%" stop-color="#D0A840" stop-opacity="0"/>
  </radialGradient>
</defs>
<rect x="1" y="1" width="678" height="208" rx="12" fill="#141922" stroke="#C2A24C" stroke-opacity="0.4" stroke-width="1"/>
<ellipse cx="525" cy="92" rx="172" ry="100" fill="url(#wash)"/>
<g stroke="#E3DCC9" fill="none" stroke-width="1.2" stroke-linecap="round">
  <path d="M66 126 Q 90 112 99 88 Q 105 68 122 54"/>
  <path d="M99 88 Q 112 84 127 91"/>
  <path d="M105 68 Q 92 64 79 69"/>
</g>
<circle cx="122" cy="54" r="1.9" fill="#E3DCC9"/><circle cx="127" cy="91" r="1.9" fill="#E3DCC9"/><circle cx="79" cy="69" r="1.9" fill="#E3DCC9"/>
<text x="98" y="170" text-anchor="middle" font-family="Georgia, serif" font-size="13" fill="#8E97A6">a result</text>
<line x1="150" y1="92" x2="232" y2="92" stroke="#C2A24C" stroke-opacity="0.5" stroke-width="1" stroke-dasharray="1.5 5" stroke-linecap="round"/>
<line x1="262" y1="52" x2="262" y2="134" stroke="#C2A24C" stroke-opacity="0.7" stroke-width="1.2"/>
<circle cx="302" cy="92" r="13" fill="#D0A840" fill-opacity="0.16"/><circle cx="302" cy="92" r="5" fill="#D0A840"/>
<text x="302" y="170" text-anchor="middle" font-family="Georgia, serif" font-size="13" fill="#8E97A6">verified</text>
<path d="M309 90 C 358 74, 382 90, 420 84" fill="none" stroke="#C2A24C" stroke-opacity="0.55" stroke-width="1" stroke-dasharray="1.5 5" stroke-linecap="round"/>
<g stroke="#C2A24C" stroke-opacity="0.5" stroke-width="1" stroke-dasharray="1.5 5" fill="none" stroke-linecap="round">
  <path d="M420 84 C 445 70, 458 64, 474 56"/><path d="M420 84 C 452 96, 480 108, 510 114"/>
  <path d="M474 56 C 510 66, 540 70, 558 80"/><path d="M510 114 C 538 106, 556 96, 558 80"/>
  <path d="M558 80 C 580 70, 596 62, 604 52"/><path d="M558 80 C 584 92, 600 108, 610 124"/>
</g>
<circle cx="420" cy="84" r="4" fill="#D0A840"/>
<circle cx="474" cy="56" r="11" fill="#D0A840" fill-opacity="0.15"/><circle cx="474" cy="56" r="4.5" fill="#D0A840"/>
<circle cx="510" cy="114" r="3.5" fill="#D0A840"/>
<circle cx="558" cy="80" r="11" fill="#D0A840" fill-opacity="0.15"/><circle cx="558" cy="80" r="4.5" fill="#D0A840"/>
<circle cx="604" cy="52" r="3" fill="#D0A840"/><circle cx="610" cy="124" r="3.5" fill="#D0A840"/>
<text x="514" y="170" text-anchor="middle" font-family="Georgia, serif" font-size="13" fill="#8E97A6">built on</text>
<text x="660" y="195" text-anchor="end" font-family="Georgia, serif" font-size="11" fill="#8E97A6" fill-opacity="0.7">constellate.science</text>
</svg>
